<mxfile host="app.diagrams.net" modified="2021-02-23T04:11:04.843Z" agent="5.0 (Windows NT 10.0; Win64; x64) AppleWebKit/537.36 (KHTML, like Gecko) Chrome/88.0.4324.182 Safari/537.36" etag="3LNynAIlnTrlppQVq8Vw" version="14.4.2" type="github">
  <diagram id="g-hxVyUAnOMzF1dCt014" name="Page-1">
    <mxGraphModel dx="1185" dy="615" grid="0" gridSize="10" guides="1" tooltips="1" connect="1" arrows="1" fold="1" page="1" pageScale="1" pageWidth="827" pageHeight="1169" math="0" shadow="0">
      <root>
        <mxCell id="0" />
        <mxCell id="1" parent="0" />
        <mxCell id="NnBGIZLO_87X9BkeJT-U-25" value="" style="edgeStyle=orthogonalEdgeStyle;rounded=0;orthogonalLoop=1;jettySize=auto;html=1;" edge="1" parent="1" source="NnBGIZLO_87X9BkeJT-U-1" target="NnBGIZLO_87X9BkeJT-U-24">
          <mxGeometry relative="1" as="geometry" />
        </mxCell>
        <mxCell id="NnBGIZLO_87X9BkeJT-U-1" value="买手访问" style="rounded=0;whiteSpace=wrap;html=1;" vertex="1" parent="1">
          <mxGeometry x="60" y="60" width="120" height="60" as="geometry" />
        </mxCell>
        <mxCell id="NnBGIZLO_87X9BkeJT-U-7" value="未开启" style="edgeStyle=orthogonalEdgeStyle;rounded=0;orthogonalLoop=1;jettySize=auto;html=1;" edge="1" parent="1" source="NnBGIZLO_87X9BkeJT-U-4" target="NnBGIZLO_87X9BkeJT-U-6">
          <mxGeometry relative="1" as="geometry" />
        </mxCell>
        <mxCell id="NnBGIZLO_87X9BkeJT-U-30" value="已开启" style="edgeStyle=orthogonalEdgeStyle;rounded=0;orthogonalLoop=1;jettySize=auto;html=1;" edge="1" parent="1" source="NnBGIZLO_87X9BkeJT-U-4" target="NnBGIZLO_87X9BkeJT-U-29">
          <mxGeometry relative="1" as="geometry" />
        </mxCell>
        <mxCell id="NnBGIZLO_87X9BkeJT-U-4" value="自动抢单" style="rhombus;whiteSpace=wrap;html=1;rounded=0;" vertex="1" parent="1">
          <mxGeometry x="80" y="480" width="80" height="80" as="geometry" />
        </mxCell>
        <mxCell id="NnBGIZLO_87X9BkeJT-U-15" value="" style="edgeStyle=orthogonalEdgeStyle;rounded=0;orthogonalLoop=1;jettySize=auto;html=1;" edge="1" parent="1" source="NnBGIZLO_87X9BkeJT-U-6" target="NnBGIZLO_87X9BkeJT-U-14">
          <mxGeometry relative="1" as="geometry" />
        </mxCell>
        <mxCell id="NnBGIZLO_87X9BkeJT-U-6" value="买手点击开启" style="whiteSpace=wrap;html=1;rounded=0;" vertex="1" parent="1">
          <mxGeometry x="60" y="650" width="120" height="60" as="geometry" />
        </mxCell>
        <mxCell id="NnBGIZLO_87X9BkeJT-U-8" value="服务端修改该用户状态为开启，记录当前时间" style="whiteSpace=wrap;html=1;rounded=0;" vertex="1" parent="1">
          <mxGeometry x="60" y="1070" width="120" height="60" as="geometry" />
        </mxCell>
        <mxCell id="NnBGIZLO_87X9BkeJT-U-17" value="" style="edgeStyle=orthogonalEdgeStyle;rounded=0;orthogonalLoop=1;jettySize=auto;html=1;" edge="1" parent="1" source="NnBGIZLO_87X9BkeJT-U-14" target="NnBGIZLO_87X9BkeJT-U-16">
          <mxGeometry relative="1" as="geometry" />
        </mxCell>
        <mxCell id="NnBGIZLO_87X9BkeJT-U-14" value="弹窗提示抢单注意事项，如保持app运行" style="whiteSpace=wrap;html=1;rounded=0;" vertex="1" parent="1">
          <mxGeometry x="60" y="790" width="120" height="60" as="geometry" />
        </mxCell>
        <mxCell id="NnBGIZLO_87X9BkeJT-U-18" value="已开启" style="edgeStyle=orthogonalEdgeStyle;rounded=0;orthogonalLoop=1;jettySize=auto;html=1;entryX=0.5;entryY=0;entryDx=0;entryDy=0;" edge="1" parent="1" source="NnBGIZLO_87X9BkeJT-U-16" target="NnBGIZLO_87X9BkeJT-U-8">
          <mxGeometry relative="1" as="geometry" />
        </mxCell>
        <mxCell id="NnBGIZLO_87X9BkeJT-U-20" value="未开启" style="edgeStyle=orthogonalEdgeStyle;rounded=0;orthogonalLoop=1;jettySize=auto;html=1;" edge="1" parent="1" source="NnBGIZLO_87X9BkeJT-U-16" target="NnBGIZLO_87X9BkeJT-U-19">
          <mxGeometry relative="1" as="geometry" />
        </mxCell>
        <mxCell id="NnBGIZLO_87X9BkeJT-U-16" value="通知权限" style="rhombus;whiteSpace=wrap;html=1;rounded=0;" vertex="1" parent="1">
          <mxGeometry x="80" y="920" width="80" height="80" as="geometry" />
        </mxCell>
        <mxCell id="NnBGIZLO_87X9BkeJT-U-21" style="edgeStyle=orthogonalEdgeStyle;rounded=0;orthogonalLoop=1;jettySize=auto;html=1;entryX=1;entryY=0.5;entryDx=0;entryDy=0;exitX=0;exitY=0.5;exitDx=0;exitDy=0;" edge="1" parent="1" source="NnBGIZLO_87X9BkeJT-U-22" target="NnBGIZLO_87X9BkeJT-U-8">
          <mxGeometry relative="1" as="geometry" />
        </mxCell>
        <mxCell id="NnBGIZLO_87X9BkeJT-U-19" value="弹窗提示开启通知权限" style="whiteSpace=wrap;html=1;rounded=0;" vertex="1" parent="1">
          <mxGeometry x="220" y="930" width="120" height="60" as="geometry" />
        </mxCell>
        <mxCell id="NnBGIZLO_87X9BkeJT-U-22" value="买手开启通知权限" style="whiteSpace=wrap;html=1;rounded=0;" vertex="1" parent="1">
          <mxGeometry x="220" y="1070" width="120" height="60" as="geometry" />
        </mxCell>
        <mxCell id="NnBGIZLO_87X9BkeJT-U-23" style="edgeStyle=orthogonalEdgeStyle;rounded=0;orthogonalLoop=1;jettySize=auto;html=1;entryX=0.5;entryY=0;entryDx=0;entryDy=0;exitX=0.5;exitY=1;exitDx=0;exitDy=0;" edge="1" parent="1" source="NnBGIZLO_87X9BkeJT-U-19" target="NnBGIZLO_87X9BkeJT-U-22">
          <mxGeometry relative="1" as="geometry">
            <mxPoint x="280" y="990" as="sourcePoint" />
            <mxPoint x="180" y="1100" as="targetPoint" />
          </mxGeometry>
        </mxCell>
        <mxCell id="NnBGIZLO_87X9BkeJT-U-27" value="不存在" style="edgeStyle=orthogonalEdgeStyle;rounded=0;orthogonalLoop=1;jettySize=auto;html=1;" edge="1" parent="1" source="NnBGIZLO_87X9BkeJT-U-24" target="NnBGIZLO_87X9BkeJT-U-26">
          <mxGeometry relative="1" as="geometry" />
        </mxCell>
        <mxCell id="NnBGIZLO_87X9BkeJT-U-38" value="存在" style="edgeStyle=orthogonalEdgeStyle;rounded=0;orthogonalLoop=1;jettySize=auto;html=1;" edge="1" parent="1" source="NnBGIZLO_87X9BkeJT-U-24" target="NnBGIZLO_87X9BkeJT-U-37">
          <mxGeometry relative="1" as="geometry" />
        </mxCell>
        <mxCell id="NnBGIZLO_87X9BkeJT-U-24" value="待评价任务" style="rhombus;whiteSpace=wrap;html=1;rounded=0;" vertex="1" parent="1">
          <mxGeometry x="80" y="190" width="80" height="80" as="geometry" />
        </mxCell>
        <mxCell id="NnBGIZLO_87X9BkeJT-U-28" value="不存在" style="edgeStyle=orthogonalEdgeStyle;rounded=0;orthogonalLoop=1;jettySize=auto;html=1;entryX=0.5;entryY=0;entryDx=0;entryDy=0;" edge="1" parent="1" source="NnBGIZLO_87X9BkeJT-U-26" target="NnBGIZLO_87X9BkeJT-U-4">
          <mxGeometry relative="1" as="geometry" />
        </mxCell>
        <mxCell id="NnBGIZLO_87X9BkeJT-U-32" value="存在" style="edgeStyle=orthogonalEdgeStyle;rounded=0;orthogonalLoop=1;jettySize=auto;html=1;" edge="1" parent="1" source="NnBGIZLO_87X9BkeJT-U-26" target="NnBGIZLO_87X9BkeJT-U-31">
          <mxGeometry relative="1" as="geometry" />
        </mxCell>
        <mxCell id="NnBGIZLO_87X9BkeJT-U-26" value="待操作采购任务" style="rhombus;whiteSpace=wrap;html=1;rounded=0;" vertex="1" parent="1">
          <mxGeometry x="80" y="350" width="80" height="80" as="geometry" />
        </mxCell>
        <mxCell id="NnBGIZLO_87X9BkeJT-U-29" value="显示：自动抢单中...&lt;br&gt;不可点击" style="whiteSpace=wrap;html=1;rounded=0;" vertex="1" parent="1">
          <mxGeometry x="220" y="490" width="120" height="60" as="geometry" />
        </mxCell>
        <mxCell id="NnBGIZLO_87X9BkeJT-U-34" value="" style="edgeStyle=orthogonalEdgeStyle;rounded=0;orthogonalLoop=1;jettySize=auto;html=1;" edge="1" parent="1" source="NnBGIZLO_87X9BkeJT-U-31" target="NnBGIZLO_87X9BkeJT-U-33">
          <mxGeometry relative="1" as="geometry" />
        </mxCell>
        <mxCell id="NnBGIZLO_87X9BkeJT-U-31" value="显示已抢到任务" style="whiteSpace=wrap;html=1;rounded=0;" vertex="1" parent="1">
          <mxGeometry x="220" y="360" width="120" height="60" as="geometry" />
        </mxCell>
        <mxCell id="NnBGIZLO_87X9BkeJT-U-36" value="" style="edgeStyle=orthogonalEdgeStyle;rounded=0;orthogonalLoop=1;jettySize=auto;html=1;" edge="1" parent="1" source="NnBGIZLO_87X9BkeJT-U-33" target="NnBGIZLO_87X9BkeJT-U-35">
          <mxGeometry relative="1" as="geometry" />
        </mxCell>
        <mxCell id="NnBGIZLO_87X9BkeJT-U-33" value="买手点击" style="whiteSpace=wrap;html=1;rounded=0;" vertex="1" parent="1">
          <mxGeometry x="420" y="360" width="120" height="60" as="geometry" />
        </mxCell>
        <mxCell id="NnBGIZLO_87X9BkeJT-U-35" value="跳转下单表单页" style="whiteSpace=wrap;html=1;rounded=0;" vertex="1" parent="1">
          <mxGeometry x="620" y="360" width="120" height="60" as="geometry" />
        </mxCell>
        <mxCell id="NnBGIZLO_87X9BkeJT-U-40" value="" style="edgeStyle=orthogonalEdgeStyle;rounded=0;orthogonalLoop=1;jettySize=auto;html=1;" edge="1" parent="1" source="NnBGIZLO_87X9BkeJT-U-37" target="NnBGIZLO_87X9BkeJT-U-39">
          <mxGeometry relative="1" as="geometry" />
        </mxCell>
        <mxCell id="NnBGIZLO_87X9BkeJT-U-37" value="显示需完成待评价任务" style="whiteSpace=wrap;html=1;rounded=0;" vertex="1" parent="1">
          <mxGeometry x="220" y="200" width="120" height="60" as="geometry" />
        </mxCell>
        <mxCell id="NnBGIZLO_87X9BkeJT-U-42" value="" style="edgeStyle=orthogonalEdgeStyle;rounded=0;orthogonalLoop=1;jettySize=auto;html=1;" edge="1" parent="1" source="NnBGIZLO_87X9BkeJT-U-39" target="NnBGIZLO_87X9BkeJT-U-41">
          <mxGeometry relative="1" as="geometry" />
        </mxCell>
        <mxCell id="NnBGIZLO_87X9BkeJT-U-39" value="买手点击" style="whiteSpace=wrap;html=1;rounded=0;" vertex="1" parent="1">
          <mxGeometry x="420" y="200" width="120" height="60" as="geometry" />
        </mxCell>
        <mxCell id="NnBGIZLO_87X9BkeJT-U-41" value="跳转完成评价页" style="whiteSpace=wrap;html=1;rounded=0;" vertex="1" parent="1">
          <mxGeometry x="620" y="200" width="120" height="60" as="geometry" />
        </mxCell>
        <mxCell id="NnBGIZLO_87X9BkeJT-U-43" value="首页 - 采购任务板块操作流程" style="text;html=1;strokeColor=none;fillColor=none;align=center;verticalAlign=middle;whiteSpace=wrap;rounded=0;" vertex="1" parent="1">
          <mxGeometry x="40" y="20" width="190" height="20" as="geometry" />
        </mxCell>
        <mxCell id="NnBGIZLO_87X9BkeJT-U-44" value="定时器派单流程" style="text;html=1;strokeColor=none;fillColor=none;align=center;verticalAlign=middle;whiteSpace=wrap;rounded=0;" vertex="1" parent="1">
          <mxGeometry x="850" y="30" width="190" height="20" as="geometry" />
        </mxCell>
        <mxCell id="NnBGIZLO_87X9BkeJT-U-48" value="" style="edgeStyle=orthogonalEdgeStyle;rounded=0;orthogonalLoop=1;jettySize=auto;html=1;" edge="1" parent="1" source="NnBGIZLO_87X9BkeJT-U-46" target="NnBGIZLO_87X9BkeJT-U-47">
          <mxGeometry relative="1" as="geometry" />
        </mxCell>
        <mxCell id="NnBGIZLO_87X9BkeJT-U-46" value="派单定时器&lt;br&gt;每分钟执行" style="ellipse;whiteSpace=wrap;html=1;" vertex="1" parent="1">
          <mxGeometry x="885" y="60" width="120" height="80" as="geometry" />
        </mxCell>
        <mxCell id="NnBGIZLO_87X9BkeJT-U-50" value="" style="edgeStyle=orthogonalEdgeStyle;rounded=0;orthogonalLoop=1;jettySize=auto;html=1;" edge="1" parent="1" source="NnBGIZLO_87X9BkeJT-U-47" target="NnBGIZLO_87X9BkeJT-U-49">
          <mxGeometry relative="1" as="geometry" />
        </mxCell>
        <mxCell id="NnBGIZLO_87X9BkeJT-U-47" value="关闭五分钟内未重新激活的用户抢单权限，记录关闭时间，记录关闭原因为未激活" style="whiteSpace=wrap;html=1;" vertex="1" parent="1">
          <mxGeometry x="885" y="230" width="120" height="60" as="geometry" />
        </mxCell>
        <mxCell id="NnBGIZLO_87X9BkeJT-U-52" value="" style="edgeStyle=orthogonalEdgeStyle;rounded=0;orthogonalLoop=1;jettySize=auto;html=1;" edge="1" parent="1" source="NnBGIZLO_87X9BkeJT-U-49" target="NnBGIZLO_87X9BkeJT-U-51">
          <mxGeometry relative="1" as="geometry" />
        </mxCell>
        <mxCell id="NnBGIZLO_87X9BkeJT-U-49" value="按开启时间升序查询出已开启抢单权限的用户" style="whiteSpace=wrap;html=1;" vertex="1" parent="1">
          <mxGeometry x="885" y="370" width="120" height="60" as="geometry" />
        </mxCell>
        <mxCell id="NnBGIZLO_87X9BkeJT-U-54" value="" style="edgeStyle=orthogonalEdgeStyle;rounded=0;orthogonalLoop=1;jettySize=auto;html=1;" edge="1" parent="1" source="NnBGIZLO_87X9BkeJT-U-51" target="NnBGIZLO_87X9BkeJT-U-53">
          <mxGeometry relative="1" as="geometry" />
        </mxCell>
        <mxCell id="NnBGIZLO_87X9BkeJT-U-51" value="按顺序发送给kafka" style="whiteSpace=wrap;html=1;" vertex="1" parent="1">
          <mxGeometry x="885" y="510" width="120" height="60" as="geometry" />
        </mxCell>
        <mxCell id="NnBGIZLO_87X9BkeJT-U-56" value="" style="edgeStyle=orthogonalEdgeStyle;rounded=0;orthogonalLoop=1;jettySize=auto;html=1;" edge="1" parent="1" source="NnBGIZLO_87X9BkeJT-U-53" target="NnBGIZLO_87X9BkeJT-U-55">
          <mxGeometry relative="1" as="geometry" />
        </mxCell>
        <mxCell id="NnBGIZLO_87X9BkeJT-U-53" value="kafka调用专属任务方法" style="whiteSpace=wrap;html=1;" vertex="1" parent="1">
          <mxGeometry x="885" y="650" width="120" height="60" as="geometry" />
        </mxCell>
        <mxCell id="NnBGIZLO_87X9BkeJT-U-58" value="存在" style="edgeStyle=orthogonalEdgeStyle;rounded=0;orthogonalLoop=1;jettySize=auto;html=1;" edge="1" parent="1" source="NnBGIZLO_87X9BkeJT-U-55" target="NnBGIZLO_87X9BkeJT-U-57">
          <mxGeometry relative="1" as="geometry" />
        </mxCell>
        <mxCell id="NnBGIZLO_87X9BkeJT-U-62" value="不存在" style="edgeStyle=orthogonalEdgeStyle;rounded=0;orthogonalLoop=1;jettySize=auto;html=1;" edge="1" parent="1" source="NnBGIZLO_87X9BkeJT-U-55" target="NnBGIZLO_87X9BkeJT-U-61">
          <mxGeometry relative="1" as="geometry" />
        </mxCell>
        <mxCell id="NnBGIZLO_87X9BkeJT-U-55" value="待评价任务" style="rhombus;whiteSpace=wrap;html=1;" vertex="1" parent="1">
          <mxGeometry x="905" y="780" width="80" height="80" as="geometry" />
        </mxCell>
        <mxCell id="NnBGIZLO_87X9BkeJT-U-60" value="" style="edgeStyle=orthogonalEdgeStyle;rounded=0;orthogonalLoop=1;jettySize=auto;html=1;" edge="1" parent="1" source="NnBGIZLO_87X9BkeJT-U-57" target="NnBGIZLO_87X9BkeJT-U-59">
          <mxGeometry relative="1" as="geometry" />
        </mxCell>
        <mxCell id="NnBGIZLO_87X9BkeJT-U-57" value="关闭抢单权限，记录关闭时间，记录关闭原因为待评价" style="whiteSpace=wrap;html=1;" vertex="1" parent="1">
          <mxGeometry x="885" y="950" width="120" height="60" as="geometry" />
        </mxCell>
        <mxCell id="NnBGIZLO_87X9BkeJT-U-91" style="edgeStyle=orthogonalEdgeStyle;rounded=0;orthogonalLoop=1;jettySize=auto;html=1;entryX=0;entryY=0.5;entryDx=0;entryDy=0;exitX=0.5;exitY=1;exitDx=0;exitDy=0;" edge="1" parent="1" source="NnBGIZLO_87X9BkeJT-U-59" target="NnBGIZLO_87X9BkeJT-U-71">
          <mxGeometry relative="1" as="geometry" />
        </mxCell>
        <mxCell id="NnBGIZLO_87X9BkeJT-U-59" value="发送推送" style="whiteSpace=wrap;html=1;" vertex="1" parent="1">
          <mxGeometry x="885" y="1240" width="120" height="60" as="geometry" />
        </mxCell>
        <mxCell id="NnBGIZLO_87X9BkeJT-U-64" value="存在" style="edgeStyle=orthogonalEdgeStyle;rounded=0;orthogonalLoop=1;jettySize=auto;html=1;" edge="1" parent="1" source="NnBGIZLO_87X9BkeJT-U-61" target="NnBGIZLO_87X9BkeJT-U-63">
          <mxGeometry relative="1" as="geometry" />
        </mxCell>
        <mxCell id="NnBGIZLO_87X9BkeJT-U-74" style="edgeStyle=orthogonalEdgeStyle;rounded=0;orthogonalLoop=1;jettySize=auto;html=1;entryX=0.5;entryY=0;entryDx=0;entryDy=0;" edge="1" parent="1" source="NnBGIZLO_87X9BkeJT-U-61" target="NnBGIZLO_87X9BkeJT-U-71">
          <mxGeometry relative="1" as="geometry" />
        </mxCell>
        <mxCell id="NnBGIZLO_87X9BkeJT-U-75" value="不存在" style="edgeLabel;html=1;align=center;verticalAlign=middle;resizable=0;points=[];" vertex="1" connectable="0" parent="NnBGIZLO_87X9BkeJT-U-74">
          <mxGeometry x="-0.8606" y="-4" relative="1" as="geometry">
            <mxPoint x="7" y="-4" as="offset" />
          </mxGeometry>
        </mxCell>
        <mxCell id="NnBGIZLO_87X9BkeJT-U-61" value="采购任务" style="rhombus;whiteSpace=wrap;html=1;" vertex="1" parent="1">
          <mxGeometry x="1065" y="780" width="80" height="80" as="geometry" />
        </mxCell>
        <mxCell id="NnBGIZLO_87X9BkeJT-U-66" value="" style="edgeStyle=orthogonalEdgeStyle;rounded=0;orthogonalLoop=1;jettySize=auto;html=1;" edge="1" parent="1" source="NnBGIZLO_87X9BkeJT-U-63" target="NnBGIZLO_87X9BkeJT-U-65">
          <mxGeometry relative="1" as="geometry" />
        </mxCell>
        <mxCell id="NnBGIZLO_87X9BkeJT-U-63" value="自动调用领取任务接口领取任务" style="whiteSpace=wrap;html=1;" vertex="1" parent="1">
          <mxGeometry x="1045" y="950" width="120" height="60" as="geometry" />
        </mxCell>
        <mxCell id="NnBGIZLO_87X9BkeJT-U-69" value="成功" style="edgeStyle=orthogonalEdgeStyle;rounded=0;orthogonalLoop=1;jettySize=auto;html=1;entryX=0.5;entryY=0;entryDx=0;entryDy=0;" edge="1" parent="1" source="NnBGIZLO_87X9BkeJT-U-65" target="NnBGIZLO_87X9BkeJT-U-68">
          <mxGeometry relative="1" as="geometry" />
        </mxCell>
        <mxCell id="NnBGIZLO_87X9BkeJT-U-72" value="" style="edgeStyle=orthogonalEdgeStyle;rounded=0;orthogonalLoop=1;jettySize=auto;html=1;" edge="1" parent="1" source="NnBGIZLO_87X9BkeJT-U-65" target="NnBGIZLO_87X9BkeJT-U-71">
          <mxGeometry relative="1" as="geometry" />
        </mxCell>
        <mxCell id="NnBGIZLO_87X9BkeJT-U-73" value="失败" style="edgeLabel;html=1;align=center;verticalAlign=middle;resizable=0;points=[];" vertex="1" connectable="0" parent="NnBGIZLO_87X9BkeJT-U-72">
          <mxGeometry x="-0.5918" relative="1" as="geometry">
            <mxPoint as="offset" />
          </mxGeometry>
        </mxCell>
        <mxCell id="NnBGIZLO_87X9BkeJT-U-65" value="领取任务" style="rhombus;whiteSpace=wrap;html=1;" vertex="1" parent="1">
          <mxGeometry x="1065" y="1080" width="80" height="80" as="geometry" />
        </mxCell>
        <mxCell id="NnBGIZLO_87X9BkeJT-U-70" style="edgeStyle=orthogonalEdgeStyle;rounded=0;orthogonalLoop=1;jettySize=auto;html=1;" edge="1" parent="1" source="NnBGIZLO_87X9BkeJT-U-68" target="NnBGIZLO_87X9BkeJT-U-59">
          <mxGeometry relative="1" as="geometry" />
        </mxCell>
        <mxCell id="NnBGIZLO_87X9BkeJT-U-68" value="关闭抢单权限，记录关闭时间，记录关闭原因为已领取到任务" style="whiteSpace=wrap;html=1;" vertex="1" parent="1">
          <mxGeometry x="1045" y="1240" width="120" height="60" as="geometry" />
        </mxCell>
        <mxCell id="NnBGIZLO_87X9BkeJT-U-71" value="结束" style="whiteSpace=wrap;html=1;" vertex="1" parent="1">
          <mxGeometry x="1220" y="1340" width="120" height="60" as="geometry" />
        </mxCell>
        <mxCell id="NnBGIZLO_87X9BkeJT-U-76" value="APP端保持激活的流程" style="text;html=1;strokeColor=none;fillColor=none;align=center;verticalAlign=middle;whiteSpace=wrap;rounded=0;" vertex="1" parent="1">
          <mxGeometry x="1470" y="30" width="190" height="20" as="geometry" />
        </mxCell>
        <mxCell id="NnBGIZLO_87X9BkeJT-U-81" value="" style="edgeStyle=orthogonalEdgeStyle;rounded=0;orthogonalLoop=1;jettySize=auto;html=1;" edge="1" parent="1" source="NnBGIZLO_87X9BkeJT-U-78" target="NnBGIZLO_87X9BkeJT-U-80">
          <mxGeometry relative="1" as="geometry" />
        </mxCell>
        <mxCell id="NnBGIZLO_87X9BkeJT-U-78" value="用户登录" style="rounded=0;whiteSpace=wrap;html=1;" vertex="1" parent="1">
          <mxGeometry x="1505" y="70" width="120" height="60" as="geometry" />
        </mxCell>
        <mxCell id="NnBGIZLO_87X9BkeJT-U-86" style="edgeStyle=orthogonalEdgeStyle;rounded=0;orthogonalLoop=1;jettySize=auto;html=1;entryX=1;entryY=0.5;entryDx=0;entryDy=0;exitX=0.5;exitY=1;exitDx=0;exitDy=0;" edge="1" parent="1" source="NnBGIZLO_87X9BkeJT-U-79" target="NnBGIZLO_87X9BkeJT-U-82">
          <mxGeometry relative="1" as="geometry">
            <Array as="points">
              <mxPoint x="1790" y="380" />
            </Array>
          </mxGeometry>
        </mxCell>
        <mxCell id="NnBGIZLO_87X9BkeJT-U-79" value="APP调用激活接口&lt;br&gt;每5分钟执行" style="rounded=0;whiteSpace=wrap;html=1;" vertex="1" parent="1">
          <mxGeometry x="1730" y="70" width="120" height="60" as="geometry" />
        </mxCell>
        <mxCell id="NnBGIZLO_87X9BkeJT-U-83" value="" style="edgeStyle=orthogonalEdgeStyle;rounded=0;orthogonalLoop=1;jettySize=auto;html=1;" edge="1" parent="1" source="NnBGIZLO_87X9BkeJT-U-80" target="NnBGIZLO_87X9BkeJT-U-82">
          <mxGeometry relative="1" as="geometry" />
        </mxCell>
        <mxCell id="NnBGIZLO_87X9BkeJT-U-80" value="APP调用激活接口" style="rounded=0;whiteSpace=wrap;html=1;" vertex="1" parent="1">
          <mxGeometry x="1505" y="210" width="120" height="60" as="geometry" />
        </mxCell>
        <mxCell id="NnBGIZLO_87X9BkeJT-U-85" value="已开启" style="edgeStyle=orthogonalEdgeStyle;rounded=0;orthogonalLoop=1;jettySize=auto;html=1;" edge="1" parent="1" source="NnBGIZLO_87X9BkeJT-U-82" target="NnBGIZLO_87X9BkeJT-U-84">
          <mxGeometry relative="1" as="geometry" />
        </mxCell>
        <mxCell id="NnBGIZLO_87X9BkeJT-U-88" style="edgeStyle=orthogonalEdgeStyle;rounded=0;orthogonalLoop=1;jettySize=auto;html=1;exitX=0.5;exitY=1;exitDx=0;exitDy=0;" edge="1" parent="1" source="NnBGIZLO_87X9BkeJT-U-82" target="NnBGIZLO_87X9BkeJT-U-87">
          <mxGeometry relative="1" as="geometry">
            <Array as="points">
              <mxPoint x="1565" y="450" />
              <mxPoint x="1790" y="450" />
            </Array>
          </mxGeometry>
        </mxCell>
        <mxCell id="NnBGIZLO_87X9BkeJT-U-89" value="未开启" style="edgeLabel;html=1;align=center;verticalAlign=middle;resizable=0;points=[];" vertex="1" connectable="0" parent="NnBGIZLO_87X9BkeJT-U-88">
          <mxGeometry x="0.0921" relative="1" as="geometry">
            <mxPoint as="offset" />
          </mxGeometry>
        </mxCell>
        <mxCell id="NnBGIZLO_87X9BkeJT-U-82" value="抢单权限" style="rhombus;whiteSpace=wrap;html=1;rounded=0;" vertex="1" parent="1">
          <mxGeometry x="1525" y="340" width="80" height="80" as="geometry" />
        </mxCell>
        <mxCell id="NnBGIZLO_87X9BkeJT-U-90" style="edgeStyle=orthogonalEdgeStyle;rounded=0;orthogonalLoop=1;jettySize=auto;html=1;" edge="1" parent="1" source="NnBGIZLO_87X9BkeJT-U-84" target="NnBGIZLO_87X9BkeJT-U-87">
          <mxGeometry relative="1" as="geometry" />
        </mxCell>
        <mxCell id="NnBGIZLO_87X9BkeJT-U-84" value="服务端更新激活时间" style="whiteSpace=wrap;html=1;rounded=0;" vertex="1" parent="1">
          <mxGeometry x="1505" y="510" width="120" height="60" as="geometry" />
        </mxCell>
        <mxCell id="NnBGIZLO_87X9BkeJT-U-87" value="返回" style="whiteSpace=wrap;html=1;rounded=0;" vertex="1" parent="1">
          <mxGeometry x="1730" y="510" width="120" height="60" as="geometry" />
        </mxCell>
      </root>
    </mxGraphModel>
  </diagram>
</mxfile>
